<svg width="110" height="135" viewBox="0 0 110 135" fill="none" xmlns="http://www.w3.org/2000/svg">
<path d="M40.5229 72.4999L36.6167 80.3124H84.6867C86.4133 80.3124 87.8117 81.7108 87.8117 83.4374C87.8117 85.164 86.4133 86.5624 84.6867 86.5624H81.0929C82.5773 87.9218 83.5148 89.8671 83.5148 92.0312C83.5148 96.125 80.1867 99.4531 76.0929 99.4531C71.9991 99.4531 68.671 96.125 68.671 92.0312C68.671 89.8671 69.6085 87.9218 71.0929 86.5624H49.8429C51.3273 87.9218 52.2648 89.8671 52.2648 92.0312C52.2648 96.125 48.9367 99.4531 44.8429 99.4531C40.7491 99.4531 37.421 96.125 37.421 92.0312C37.421 89.8671 38.3585 87.9218 39.8429 86.5624H36.3195C34.2023 86.5624 32.2726 85.4843 31.1554 83.6874C30.046 81.8827 29.9445 79.6796 30.8898 77.789L34.5148 70.539L24.3738 25.625H17.4988C15.7722 25.625 14.3738 24.2266 14.3738 22.5C14.3738 20.7734 15.7722 19.375 17.4988 19.375H26.8738C28.3347 19.375 29.6004 20.3828 29.9207 21.8125L32.8973 35.0005H92.4993C92.9758 35.0005 93.4212 35.2193 93.7181 35.5864C94.015 35.9614 94.1243 36.4458 94.0228 36.9067L86.2103 71.2817C86.0462 71.9927 85.4134 72.5005 84.6869 72.5005L40.5229 72.4999Z" fill="white"/>
</svg>
